# xmcd CD database file
#
# Track frame offsets:
#	150
#	32607
#	61690
#	89777
#	104479
#	121784
#	135589
#	164117
#	179252
#	196994
#	217796
#	244388
#	293056
#
# Disc length: 4426 seconds
#
# Revision: 0
# Processed by: cddbd v1.5.2PL0 Copyright (c) Steve Scherf et al.
# Submitted via: CDex 1.70beta2
#
DISCID=bb11480d
DTITLE=Varios - Jazz for Readers (Vol. 1)
DYEAR=2007
DGENRE=Jazz
TTITLE0=All the Things You Are - ART TATUM and BEN WEBSTER (J.Kern - O.Hammerstein II)
TTITLE1=Solitaire - ERROLL GARNER (E.Garner - S.Allen)
TTITLE2=Nature Boy - MILES DAVIS (E.Ahbez)
TTITLE3=I Can't Get Started - BENNY GOODMAN (V.Duke - I.Gershwin)
TTITLE4=Easy Leaving - BILL EVANS (L.Robin - R.Rainger)
TTITLE5=It Ain't Necessarily So - AHMAD JAMAL (G.Gershwin - I.Gershwin)
TTITLE6=Old Folks - LOU DONALDSON (W.Robison - D.Lee Hill)
TTITLE7=These Foolish Things - STAN GETZ (Link-Strachey-Marvell)
TTITLE8=Chelsea Bridge - BEN WEBSTER and BILLY STRAYHORN (B.Strayhorn)
TTITLE9=It's the Talk of the Town - COLEMAN HAWKINS (Livingston-Neiburg-Symes)
TTITLE10='Round Midnight - MILES DAVIS and JOHN COLTRANE (T.Monk)
TTITLE11=More Than You Know - SONNY ROLLINS and THELONIOUS MONK (Rose-Eliscu-Youmans)
TTITLE12=Polka Dots and Moonbeams - DONALD BYRD and JOHN COLTRANE (Van Heusen-Blake)
EXTD=YEAR: 2007
EXTT0=
EXTT1=
EXTT2=
EXTT3=
EXTT4=
EXTT5=
EXTT6=
EXTT7=
EXTT8=
EXTT9=
EXTT10=
EXTT11=
EXTT12=
PLAYORDER=
